<svg xmlns="http://www.w3.org/2000/svg" viewBox="0 0 571.08 115.75"><title>maiden-logo</title><g id="maiden_bg"><path d="M227.27,406.54c10.62,0,5.53-32.08,11.05-49.31a.82.82,0,0,0,.11-.43c0-.54-.54-.65-1-.65a.88.88,0,0,0-1,.54c-4.12,13.87.33,47.36-9,47.36-2.71,0-.76-3.68-3.36-3.68-.87,0-1.3,1.3-1.3,2.06A4.26,4.26,0,0,0,227.27,406.54Z" transform="translate(-220.12 -322.76)" style="fill:#999"/><path d="M288.19,409c5.53,0,7.48-4.23,7.48-8.67,0-9.43-.65-17.45-2.38-30.13a.63.63,0,0,0-.43-.11c-.22,0-.33.33-.33.54,1.19,11.16,1.84,17.78,1.84,26.66,0,6.07-.11,10.73-6.29,10.73a3.44,3.44,0,0,1-3.36-3.69c0-1.3.65-2.38,2-2.38a6.94,6.94,0,0,1,3,.76c0-2.17-.76-4.44-3.58-4.44a9.62,9.62,0,0,0-1.63.22c0-.11,1.19-1.52,1.19-1.63,0-.54,3.79-3.14,3.79-7.26,0-1.52-.43-3.9-2.49-3.9a1.59,1.59,0,0,0-1.73,1.41c0,1.84,3.25.43,3.25,2,0,6.29-7.26,8-7.26,14C281.25,406.87,284.61,409,288.19,409Zm-2-9.75a2.42,2.42,0,0,1,2.17,2,3.56,3.56,0,0,0-2.28-.54c-1.19,0-1.52.87-2.06,1.19a1.37,1.37,0,0,1-.11-.65A2,2,0,0,1,286.24,399.28Z" transform="translate(-220.12 -322.76)" style="fill:#999"/><path d="M250,370.13a.63.63,0,0,0-.43.11c-1.52,11.92-2.49,20.7-2.49,30.13,0,4.44,2.06,8.67,7.59,8.67,3.58,0,6.94-2.17,6.94-6,0-6-7.26-7.69-7.26-14,0-1.52,3.25-.11,3.25-2a1.59,1.59,0,0,0-1.73-1.41c-2.06,0-2.49,2.38-2.49,3.9,0,4.12,3.79,6.72,3.79,7.26,0,.11,1.19,1.52,1.19,1.63a9.62,9.62,0,0,0-1.63-.22c-2.82,0-3.58,2.28-3.58,4.44a6.94,6.94,0,0,1,3-.76c1.3,0,2,1.08,2,2.38a3.44,3.44,0,0,1-3.36,3.69c-6.18,0-6.29-4.66-6.29-10.73,0-8.89.65-15.5,1.84-26.66C250.36,370.45,250.25,370.13,250,370.13Zm6.72,30.56a3.56,3.56,0,0,0-2.28.54,2.42,2.42,0,0,1,2.17-2,2,2,0,0,1,2.28,2,1.37,1.37,0,0,1-.11.65C258.27,401.56,257.95,400.69,256.75,400.69Z" transform="translate(-220.12 -322.76)" style="fill:#999"/><path d="M323.84,420.42c-3.58,2.71-4.66,3.36-8.78,3.36s-10-2.6-17.77-2.6a45.49,45.49,0,0,0-14.85,2.28,82.44,82.44,0,0,0-7.59-3.79c6.72-2.38,13.87-4.12,19.62-4.12.11,0,1.84-.43,1.84-1.3s-1.08-1-2.06-1c-4.66,0-13.55,2.17-21.79,5.42-8.45-3.47-17.56-5.74-22.33-5.74-1,0-2.06.33-2.06,1.19s1.73,1.3,1.84,1.3c5.74,0,13.11,1.84,19.94,4.33a72.26,72.26,0,0,0-7.7,3.69,46.7,46.7,0,0,0-15.07-2.38c-7.8,0-13.66,2.6-17.77,2.6s-5.2-.65-8.78-3.36a.4.4,0,0,0-.43.43,2.56,2.56,0,0,0,.54,1.41c2.17,3.9,4.44,5.42,8.35,5.42,2.6,0,5.85-2.38,8.24-2.38a3.87,3.87,0,0,0-1.3,2.93c0,2.28,3.58,3.36,5.31,3.36a.35.35,0,0,0,.33-.33c0-.11-.11-.22-.22-.33-1-1.08-2.06-2-2.06-3.58s2.06-5,7.91-5a41.89,41.89,0,0,1,13.33,2.17c-4.44,2.71-7.48,5.64-7.48,8.34s2.82,3.79,5.53,3.79c3.79,0,8-3.14,13.66-6.5,5.53,3.25,9.75,6.39,13.55,6.39,2.71,0,5.53-1.19,5.53-3.79s-2.93-5.53-7.26-8.24a43.78,43.78,0,0,1,13.11-2.06c5.85,0,7.91,3.36,7.91,5s-1,2.38-2.06,3.58c-.11.11-.22.22-.22.33a.35.35,0,0,0,.33.33c1.73,0,5.31-1.08,5.31-3.36a3.87,3.87,0,0,0-1.3-2.93c2.38,0,5.64,2.38,8.24,2.38,3.9,0,6.18-1.52,8.35-5.42a2.56,2.56,0,0,0,.54-1.41A.4.4,0,0,0,323.84,420.42Zm-65.14,14.74c-2,0-4.12-.76-4.12-2.38,0-2.06,3.25-4.77,8-7.59a61.33,61.33,0,0,1,8,3.9C265.64,432.23,262.07,435.16,258.71,435.16Zm5.75-10.95c2.38-1.19,5.09-2.38,7.91-3.58,2.71,1.19,5.42,2.38,7.8,3.58a59.83,59.83,0,0,0-7.91,3.9A65.44,65.44,0,0,0,264.45,424.21Zm25.36,8.45c0,1.63-2.17,2.38-4.12,2.38-3.36,0-6.94-2.82-11.81-6a61.33,61.33,0,0,1,8-3.9C286.67,427.9,289.81,430.71,289.81,432.66Z" transform="translate(-220.12 -322.76)" style="fill:#999"/><path d="M270.52,367.09c0,1.63,1,5.42,1.73,5.42s1.73-3.79,1.73-5.64c0-2.49,3.69-2.82,3.69-3.36a1.62,1.62,0,0,0-1.41-1.3,6.27,6.27,0,0,0-2.93.65,5.06,5.06,0,0,0,.33-1.84c0-2-.87-3.79-1.41-3.79s-1.41,1.41-1.41,3.69a13.41,13.41,0,0,0,.22,2,9.21,9.21,0,0,0-3.14-.65,1.53,1.53,0,0,0-1.52,1.3C266.4,364.17,270.52,364.27,270.52,367.09Z" transform="translate(-220.12 -322.76)" style="fill:#999"/><path d="M307.48,356.15c-.43,0-1,.11-1,.65a.82.82,0,0,0,.11.43c5.53,17.23.43,49.31,11.05,49.31a4.26,4.26,0,0,0,4.44-4.12c0-.76-.43-2.06-1.3-2.06-2.6,0-.65,3.68-3.36,3.68-9.32,0-4.88-33.49-9-47.36A.88.88,0,0,0,307.48,356.15Z" transform="translate(-220.12 -322.76)" style="fill:#999"/><path d="M241.15,339.78A43.69,43.69,0,0,0,256.75,337a60.2,60.2,0,0,0,6.07,9.1,58.39,58.39,0,0,1-7.37,3.36c0,.87,16,33.06,16.8,33.06s16.37-32.08,16.37-32.62c0-.33-3.36-1.41-7.37-3.47a66,66,0,0,0,6.39-9.43,43.69,43.69,0,0,0,15.61,2.82c9,0,11.49-3.36,11.49-5.09s-.65-2.17-1.84-2.17c-.54,0-1.84.43-1.84,1.41a2.83,2.83,0,0,1,.33,1.19c0,3.36-2.71,3.9-8.13,3.9s-15.61-3-16-3.25c-2,2.71-4.44,6.61-7.26,10a31.51,31.51,0,0,1-7.48-5.09c2.6-2.6,4.44-5.53,4.44-8.78,0-2.17-.22-5.85-4.88-5.85s-5.09,3.79-5.09,6a12.54,12.54,0,0,0,3.9,8.56,36.84,36.84,0,0,1-6.83,4.77c-2.6-3.25-5-6.94-6.83-9.54-.43.22-10.62,3.25-16,3.25s-8.13-.54-8.13-3.9a2.83,2.83,0,0,1,.33-1.19c0-1-1.3-1.41-1.84-1.41-1.19,0-1.84.43-1.84,2.17S232.15,339.78,241.15,339.78Zm27-7.8c0-2.6,1.08-5.31,3.9-5.31s3.68,3.25,3.68,5.09c0,2.93-1.73,5.64-4.12,8C269.54,337.5,268.13,335,268.13,332Zm3.58,9.43a35.34,35.34,0,0,0,7.37,5.31,20,20,0,0,1-6.94,5.53c-2.71-1-5.09-3.36-7.37-6.07A37.59,37.59,0,0,0,271.71,341.41Zm.54,12.46a30.27,30.27,0,0,0,8.13-6.5,32.83,32.83,0,0,0,6.61,2.71l-14.52,30.24c-.11.22-10.4-19.73-15.71-30.46a67.55,67.55,0,0,0,6.83-3A29.44,29.44,0,0,0,272.25,353.87Z" transform="translate(-220.12 -322.76)" style="fill:#999"/><path d="M421.07,422.26a17.88,17.88,0,0,0-11.71,4.44c0-2.49-1.84-5.31-4.33-5.31-2,0-2.6.76-2.6,1.63,0,2.71,4.23,1.19,4.23,2.82,0,3.36-2.93,4.23-6.94,4.23a9.66,9.66,0,0,1-5.85-1.84,19.48,19.48,0,0,0,2.49-9.75c0-13.55-7.8-21.24-16.69-28.5,1.52-3.25,3-6.07,3.79-6.72-4.44-2.28-14.31-10-18.53-17.56,1.19-3,2.6-6.29,4-9.65.76,0,2.6-.11,2.6-2.28a3.47,3.47,0,0,0-.76-2.06l6.61-15.61c0-.43-.11-.87-.76-.87-.87,0-3.69,6.61-7.26,15.72a2.12,2.12,0,0,0-.87-.11c-4.77,0-6.5,3.9-6.5,8.24a16.92,16.92,0,0,0,1.41,6.72c-.87,2.38-1.84,4.66-2.82,6.94a34.61,34.61,0,0,1-7.37-22.22c0-5,1.84-9.32,7.8-9.32,1,0,2.38.65,3.36.65a.68.68,0,0,0,.76-.76c0-1.63-3.9-2.71-6.07-2.71-1.19,0-2.17.22-2.49.22.43-1,3-2.17,3-3.25,0-.54-.43-.76-1-.76-1.84,0-2.06,2.28-3.14,3-.76-2.71-4.33-8.35-7.37-8.35-.54,0-.65.22-.65.65,0,2.06,4.77,3.58,4.77,9.1,0,3.9-.43,7.48-.43,11.49a36.16,36.16,0,0,0,8.13,23.74l-2.6,6.07c-5.42-5.2-9.65-10.84-9.65-16.8,0-.11-.33-.87-.65-.87-.54,0-.76.33-.76.87,0,6.61,4.55,12.68,10.41,18.21-5.2,11.38-10.3,20.48-13.66,20.48-.33,0-.76-.33-1.08-.43a4.15,4.15,0,0,0,.54-2.06,1.94,1.94,0,0,0-2-2.17c-1.3,0-2.06,1.84-2.06,2.82a4.06,4.06,0,0,0,4.23,4.12c4.12,0,8.24-6.83,15-21.89,6.18,5.75,13.44,10.62,17.77,14.52a15.44,15.44,0,0,0-.43,3.69c0,2.71.54,4.66,3.14,4.66,1.19,0,2.6-1.84,2.6-3,0-1.63-1.41-3.47-3.58-5.53.54-1.84,1.3-3.9,2.06-5.85,8.45,6.83,15.61,14.42,15.61,27.31a17,17,0,0,1-2.28,8.78c-2.82-2.71-4.34-7.15-4.34-11.6a.48.48,0,0,0-.43-.33.35.35,0,0,0-.33.33c0,5.2,1.52,9.75,4.44,12.68-3.25,4.66-8.89,7.15-15.28,7.15-10.08,0-16.8-5.42-16.8-15.07,0-1.19,1.41-11.49,8.45-11.49,3.79,0,8.24,2.06,8.24,6.29,0,1.19-1,1.73-1,2.6a1.79,1.79,0,0,0,1.63,1.84c.87,0,1.73-.65,2.38-2.71a4.56,4.56,0,0,1,.33,2.06c0,3.47-2.6,7-6.18,7-5.64,0-2.38-5.42-5.2-5.42-.65,0-1.08.65-1.08,1.41,0,3.9,3.25,5.31,6.61,5.31,4.23,0,7.37-4.44,7.37-8.56,0-6.61-4.55-11.71-11.49-11.71-7.15,0-11.6,6.94-11.6,13.11a27.66,27.66,0,0,0,1.63,7.7c-4.77-2.28-9.86-4.66-15.28-4.66-3.14,0-7.7,2.06-7.7,5.74a3.45,3.45,0,0,0,3.79,3.68c2.17,0,3.14-1,3.14-1.84,0-.65-.65-1.3-1.73-1.3a3.64,3.64,0,0,0-1.63.43,4.36,4.36,0,0,1-.43-1.63c0-2.71,3.69-3.68,5.64-3.68,12.36,0,17.78,12.57,30.89,12.57,7.91,0,13.44-3,16.58-7.7a14.53,14.53,0,0,0,9.1,2.93c10.08,0,9.1-7.8,20.81-7.8.54,0,.54-.65.54-.76C423.67,422.37,422,422.26,421.07,422.26Zm-58.09-63c0-2.28,1.73-5.85,3.58-5.85a3.75,3.75,0,0,0,1.08,1.84l-3.47,8.89A11.53,11.53,0,0,1,363,359.29Zm16.26,43.14c0,.87-.33,1.41-1.08,1.41-1.19,0-1.63-1.08-1.63-2.71a13.09,13.09,0,0,1,.33-2.71C378.36,399.93,379.23,401.34,379.23,402.43Zm-3.36-6.83c-4.66-4.12-11.71-9-17.56-14.42l2.49-6c5,5.74,11.27,10.19,17.13,14.85A33.93,33.93,0,0,0,375.87,395.6Zm2.6-6.61c-6-4.77-12.25-9.32-17-15.17l2.71-6.5c3.79,6.61,11.38,11.6,17.45,16.26A38.24,38.24,0,0,0,378.47,389Z" transform="translate(-220.12 -322.76)" style="fill:#999"/><path d="M359.94,334a32.78,32.78,0,0,1,20.81-7.37,21.91,21.91,0,0,1,22.11,20.92,72.76,72.76,0,0,0-7.48-3.58c-.11,1-.22,6.72-.22,9.1a51.45,51.45,0,0,1,6.5,3.36c-2.49,8.24-8.56,14.52-14.31,14.52-7.48,0-10-2.06-10-2.06-.22,0-.54.11-.54.65,0,0,2.71,2.49,10.51,2.49,5.85,0,12.79-6.18,15.82-14.74a36.19,36.19,0,0,1,4.33,3.14A58.91,58.91,0,0,0,405.24,375c0,6.18,2.71,20.92,11.16,20.92a3.32,3.32,0,0,0,3.47-3.36,2.86,2.86,0,0,0-2.82-2.93c-.54,0-.76.33-.76.65,0,1,1.52.54,1.52,1.73s-1.3,1.3-2.49,1.3c-6.61,0-9.21-13.66-9.21-18.43a58,58,0,0,1,2.28-13.66c3.25,2.93,5.85,6.61,5.85,10.73a4,4,0,0,1-.54,2.38,1.67,1.67,0,0,0-1.19-.65,1.65,1.65,0,0,0-1.52,1.63c0,.87.33,2.28,1.41,2.28,2.71,0,3.25-3.69,3.25-5.64,0-4.66-3.14-8.78-6.94-12,.87-3.58,1.84-6.5,2.06-7.7-.54-.43-3.14-2-6.07-3.79,0-12.79-11.38-23-24-23s-21.24,8.24-21.24,8.24A.48.48,0,0,0,359.94,334ZM402,355.28a58.7,58.7,0,0,0-5.64-2.93l.22-6.61,6.29,3.47A28.27,28.27,0,0,1,402,355.28Zm2.6-5.09,4.88,2.6c-.43,2.17-1.08,4.34-1.63,6.5a35,35,0,0,0-4.33-3A23,23,0,0,0,404.59,350.18Z" transform="translate(-220.12 -322.76)" style="fill:#999"/><path d="M490.43,374.25c3-3.36,2.93-6.83,3.68-11.6,0-.65-.33-.87-.76-.87-.22,0-.33.11-.54.11-1.73,10.08-6.72,14.63-13.33,18.75,0-1.08-.22-7-.22-8.24-.22.22-7.37,3.79-7.37,4,0,1.08.22,10.51.22,10.73.22,0,4.55-3,6.07-4v8.13l-10.84,6.18c0-1.73-.11-13-.11-23.74,6.72-6.94,12.25-14.31,12.25-24.39,0-12.57-8.67-21.89-22-21.89s-19.08,12.14-19.08,18.75,6.72,16.91,16.58,16.91c5.2,0,8.78-1.08,11.16-2.71v12.14C459.87,378.26,452.5,383.78,447,391A19.9,19.9,0,0,0,450,380c0-3.69-1.84-9.32-6.61-9.32-2.6,0-4.44,2.71-4.44,4.88,0,1.19.54,4.34,2.38,4.34a5.28,5.28,0,0,1-.11-1.3c0-3,2.28-3.47,2.6-3.47,3.47,0,3.68,3.68,3.68,6.94,0,7.59-8.13,17.56-8.13,31.86,0,9.21,8.56,20.81,22.54,20.81,15.17,0,20.38-11.16,20.38-16.69s-4.33-13.55-12.25-13.55c-8.78,0-10.95,6.07-10.95,9.21,0,6.94,5,8.13,6.5,8.13s3.47-.54,3.47-1.3a14.71,14.71,0,0,1-3.36.22c-2.71,0-5-3.14-5-7,0-4.33,3.58-8.13,9.21-8.13,6,0,10.4,6.72,10.4,12.46,0,9-7.26,15.72-18.32,15.72S441.55,423,441.55,413.81c0-17.88,13.66-28.07,24.6-39v24.6c0,.22.22.33.43.33,3.14-2,12.9-7.26,12.9-7.91v-9.86c2.71-1.63,6.5-5.09,10.08-5.09,2.93,0,3.79,3.36,4.55,3.36.43,0,.76,0,1-.54C494.12,377.39,492.38,374.35,490.43,374.25Zm-46.28-.76c-2.6,0-2.82,1.52-3.79,2.82a3.17,3.17,0,0,1-.22-1c0-1.52,1-3,2.06-3.25.22,0,.43-.11.65-.11,1.08,0,2.38.54,2.6,1.63A6.22,6.22,0,0,0,444.15,373.49Zm22-17.67v3.36c-2.28,1.73-5.74,3.14-11.16,3.14-8.35,0-15-9.21-15-16.15s6.07-17,17.45-17,20.81,6.5,20.81,20.38c0,9.43-4.88,15.93-11.06,22V359.61a10.35,10.35,0,0,0,3.9-7.7,2.17,2.17,0,0,0-2.17-2.38C466.37,349.53,466.15,353.54,466.15,355.82Zm1.08,2.49v-3.47c0-1.3.22-4,1.84-4a1.08,1.08,0,0,1,1.08,1.08A10,10,0,0,1,467.24,358.31Zm6.07,26.45c0-.76-.11-7.48-.11-7.59a51.9,51.9,0,0,1,4.88-2.71c0,.22.11,6.61.11,6.94Z" transform="translate(-220.12 -322.76)" style="fill:#999"/><path d="M522.62,383.24a11.78,11.78,0,0,0,6.07,1.73c4.77,0,7.59-3.79,8.89-6.61a27.15,27.15,0,0,0,2.17,7.37,7.16,7.16,0,0,0-1.84,3.68.21.21,0,0,0,.22.22c.43,0,1.08-1.62,2.17-2.93,2.49,4.55,6.39,8.13,11.49,8.13,5.42,0,8.89-2.6,8.89-6.5,0-.33-.11-.65-.43-.65a.48.48,0,0,0-.43.33c-1.63,3.14-4,4.23-7.48,4.23-5.64,0-9.21-2.49-11.27-6.07a3.94,3.94,0,0,1,2.06-1c2.06,0,4,.43,6.07.43,4.33,0,7-2.38,7-7a5.41,5.41,0,0,0,1.84.65,10.92,10.92,0,0,0-.43,2,1.75,1.75,0,0,1,1.63-.65,1.8,1.8,0,0,1,1.84,1.73,1.74,1.74,0,0,1-1.84,1.73,1.5,1.5,0,0,1-1.62-1c0,2,.87,3.14,2.6,3.14s2.38-1.41,2.38-2.93c0-2.06-.87-3.36-3.14-4,3.47,0,6.72-2.82,6.72-7.91,0-2.38-1-4.44-1-6.83a3,3,0,0,1,.33-1.41,20.28,20.28,0,0,1,9.32,17.45c0,12.14-8.89,22.87-20.16,22.87-.11.11-.22.22-.22.33s.33.33.76.33c13.11,0,21-11.49,21-23.41,0-7.15-4.23-14.42-10.19-18.32,1.08-1.3,2.71-2.06,2.71-2.71,0-.22-.33-.33-.43-.33-.87,0-2.28,1.19-3.14,1.84-.22.11-.32.32-.43.43a17.13,17.13,0,0,0-8.24-2.28,21,21,0,0,0-12.46,4.23,9.48,9.48,0,0,1-.33-2.6c0-1.52.54-2.49.54-3.79,0-.43-.11-1.08-.65-1.08-1.41,0-1.52,3.25-1.52,4.12a15.75,15.75,0,0,0,.65,4.44c-3.14,2.82-5.2,6.39-5.42,10.08-.54,2.28-2.6,8.89-8.67,8.89-4.44,0-10.51-3.36-10.51-8a3.36,3.36,0,0,1,2.71-3.14c.22.54.65.54,1.08.54a1.19,1.19,0,0,0,1-1.19,1.25,1.25,0,0,0-1.41-1.41c-2.49,0-4,2.38-4,5.2a8.17,8.17,0,0,0,3.14,6.4c-4.88-.11-8.89-8.45-14.63-8.45-1.19,0-3.79.43-3.79,1.84,0,.54.11,1,.87,1,1,0,1.73-.54,2.93-.54C511.78,375.76,515.14,383.13,522.62,383.24Zm33.92-22.65a17.25,17.25,0,0,1,7.48,1.73,5.43,5.43,0,0,0-.87,3.25,24.33,24.33,0,0,0,.33,2.6c-.65-.54-.87-1.08-2.17-1.08-.54,0-1,.76-1,1.19,0,2.93,4.12,2.38,4.12,5,0,3-2.06,4.23-4.66,4.23-8.13,0-3.36-8.13-7-8.13-1.73,0-1.41,1.19-1.63,2.06-2.93-2.17-5.53-4.23-6.72-7A20.74,20.74,0,0,1,556.54,360.59Zm-13.44,4.88c1.41,3.47,3.79,6.5,6.61,7.91-1,0-2.71,0-2.71,1.41,0,3.69,7.8-.54,7.8,5.2,0,2.49-1.08,3.79-3.79,3.79-3.9,0-2.6-3.69-5.64-3.69-.43,0-1.41.33-1.41,1.19a2.14,2.14,0,0,0,1.3,2c-1.52,0-3.47,1.08-4.77,2a22.76,22.76,0,0,1-2-9.75A13.85,13.85,0,0,1,543.11,365.47Z" transform="translate(-220.12 -322.76)" style="fill:#999"/><path d="M519.59,354.52c0,2.82.11,7.26.11,11.71a.74.74,0,0,0,.76.76c.43,0,.76-.22.76-.54V353.11a14.13,14.13,0,0,1-13-14.31c0-8,5.64-13.11,14.09-13.11,3.25,0,7.15,1.3,7.15,4.88,0,2.82-1.52,2.93-2.6,2.93a4.07,4.07,0,0,0,.11-1.08c0-1.19-.76-1.63-2.06-1.63-1.73,0-2.38,1.3-2.38,2.82,0,1.84,1.84,2.6,3.47,2.6,2.93,0,5.74-1.52,5.74-5.2,0-4.44-4-7.7-9.75-7.7-8,0-15.28,6.07-15.28,14.74C506.69,348.23,513.63,353,519.59,354.52Z" transform="translate(-220.12 -322.76)" style="fill:#999"/><path d="M572.26,421.18c-6.83,0-12.46,7.48-19.94,7.48a10.68,10.68,0,0,1-2.6-.33,67.51,67.51,0,0,1,6.61-5.09c-2.17-1.41-6.83-3.69-8.67-4,0,0-3.14,2.28-7.26,4.66a68.13,68.13,0,0,1-7.26-5.31c-3.68,2-8.78,3.47-8.78,3.79A72,72,0,0,1,532,428a21.6,21.6,0,0,1-7.91,2c-8.45,0-17.88-2.06-17.88-12.46s12.36-11.38,14.85-11.38c0-3,.22-16,.22-17.88a.91.91,0,0,0-.76-.33.88.88,0,0,0-.76.54v16.8c-.65,0-15.5,0-15.5,12.14,0,10.3,9,13.55,19.73,13.55a28.65,28.65,0,0,0,9.21-2c3,2.49,5.74,5,7.59,6.83l7.8-6.61a12,12,0,0,0,3.68.65c6.83,0,15.17-7.15,19.83-7.15s7.48,2.82,7.48,4.55a3.21,3.21,0,0,1-1.73,2.6,5,5,0,0,0,2.17,1,3.35,3.35,0,0,0,3.36-3.58C583.42,424.21,579.09,421.18,572.26,421.18Zm-45.09,1.3,6.18-2.28a66.71,66.71,0,0,0,6.07,4.23,63.59,63.59,0,0,1-6.07,3Zm13.76,11.16-6.39-5.2a65.85,65.85,0,0,0,6.18-3.14,38,38,0,0,0,6.61,3.36C544,431.36,540.94,433.64,540.94,433.64Zm7.37-5.74a40.93,40.93,0,0,1-6.61-3.14,57.12,57.12,0,0,0,6-4.12,38.33,38.33,0,0,1,5.85,2.71Z" transform="translate(-220.12 -322.76)" style="fill:#999"/><path d="M580.5,332.52c-4.66,0-6.07,1.19-8.45,2.28a6.14,6.14,0,0,0,.33-2c0-3.47-2.06-7.7-7.37-7.7s-12.14,6.29-16.69,6.29-4-.65-5.53-.65c-.54,0-.87,0-.87.65s2.38,2.71,6.29,2.71,6.39-1.3,9.1-3.69a4.11,4.11,0,0,0,4,4.44c1.84,0,2.38-.43,2.49-1.08-1.3,0-3.69-.43-3.69-2.38s1.73-4.12,4.88-4.12c2.71,0,5.64,1,5.64,5.2s-4.34,6.83-10.08,6.83h-41a.79.79,0,0,0-.65.65c0,.33.22.54.65.54h40.86c11.38,0,10.41-6.61,20.05-6.61,4.23,0,6.29,2.17,6.29,4.77s-4,1.41-4,3.9c0,.87.76,1.52,2.17,1.52,2.06,0,3.36-3,3.36-5.42S585.16,332.52,580.5,332.52Z" transform="translate(-220.12 -322.76)" style="fill:#999"/><path d="M670.13,424.75c-5,0-12,5.64-12,5.64l-4-2.82,6.83-4.33L654,418.14s5.09-4,5.09-8.45c0-2.82-2-8.45-6.5-8.45s-6,5.31-6,8.45a9.89,9.89,0,0,0,5.09,8.56c-.54.22-7,5-7,5l6.39,4.44s-7.15,3.47-19.08,3.47c-7.69,0-21.78-2.82-21.78-13.87s10-11.49,13.76-11.49V385.84c-.54-.43-2.71-3.25-5-6.07,2.49-2.82,4.77-5.31,4.77-5.2v-16.8c0-4.12-1.19-7.26-5.85-7.26s-4.88,2.06-4.88,3c0,1.41.11,2.6,1.52,2.6,1.73,0,.76-3.69,3.9-3.69s4.34,1.63,4.34,7.37-.11,12.14-.11,12.68a3.4,3.4,0,0,1-.43,1.3c-1.19,1.3-2.71,3.14-4.12,4.88a52.41,52.41,0,0,0-4.88-5.74c-.54,0-4.23,6.29-4.23,6.83s4.12,6.61,4.33,6.61c0,0,2.38-2.71,4.66-5.42l4.33,5a4.52,4.52,0,0,1,.54,1.52c0,.54.11,10.84.11,16.58-3.9,0-14.74,1.84-14.74,13.22s13.44,15.07,23.74,15.07c12.79,0,20.38-3.9,20.38-3.9a66.89,66.89,0,0,0,5.74,3.47c.43,0,7.26-5.64,12-5.64,5,0,6.83,2.82,6.83,4.55a3.21,3.21,0,0,1-1.73,2.6,5,5,0,0,0,2.17,1,3.34,3.34,0,0,0,3.36-3.58C680.75,427.79,676.53,424.75,670.13,424.75Zm-56.79-40.21c-.76-.76-3.14-4.23-3.14-4.77s2.49-4,3.14-4.77l3.79,4.77C615.4,382,613.77,384,613.34,384.54Zm34.36,25.15c0-2.06,1.73-6.61,4.88-6.61s5,3.36,5,6.61c0,3.9-5,7.8-5,7.8S647.7,414.89,647.7,409.69Zm-.43,13.55s5.31-4.12,5.31-4.23l6,4.23-5.75,3.58Z" transform="translate(-220.12 -322.76)" style="fill:#999"/><path d="M682.49,334.25a77.18,77.18,0,0,1-8,.33c-7.26,0-15.82-.76-15.82-3.36,0-1,1.08-1.3,1.08-2.49,0-1-.54-1.19-1.62-1.19A2.66,2.66,0,0,0,656,329.7c0,5.42,11.27,6.29,18.64,6.29,3.58,0,6.29-.22,6.29-.22l-4.33,4.44c-13.55-1.3-20.59-2-29.16-2-7.37,0-19.62,2.06-24.82,2.06s-8.56-1.73-8.56-7.15c0-3.79,3.58-5.53,6.83-5.53,2.93,0,4.66,1.73,4.66,4.55,1-.11,1.19-1.3,1.19-1.84.43,0,.87.76.87,1.41a2.11,2.11,0,0,1-2.28,2.06c-1.41,0-2.06-.87-2.93-.87-.22,0-.76.11-.76.65,0,1.19,1.52,2.28,3.58,2.28,3.25,0,5.09-2.38,5.53-5.64,3.14,1.52,6.39,3.69,10.51,3.69,2.28,0,6.18-.76,6.18-3.69,0-2-1-3.68-3.36-3.68a.83.83,0,0,0-.87.76c0,1.73,2.06,1,2.06,2.82,0,2.17-2.71,2.49-4.23,2.49-6.61,0-13.76-7.15-20.05-7.15-5.2,0-8.78,3.14-8.78,7.7,0,5.53,4.55,8.45,10.41,8.45s10.4-2.28,24.82-2.28a275.45,275.45,0,0,1,30.13,2.06c.22,0,5.74-5.64,5.74-6.07A1.11,1.11,0,0,0,682.49,334.25Z" transform="translate(-220.12 -322.76)" style="fill:#999"/><path d="M659.51,360.26c-3.47,0-10,.76-10,3.47,1-1.3,3.68-2.06,10-2.06,8.34,0,15.28,7,15.28,16.26,0,6.61-4.23,11.71-10.51,11.71s-10.62-3.47-10.62-9.75,7.26-5.85,7.26-8.89c0-.76-.54-1.08-1.41-1.08-2.71,0-7.26,4.88-7.26,10.08s5.2,11.49,12,11.49a22.07,22.07,0,0,0,4.23-.43c-2.17,2.6-4.55,5.42-4.55,10.19a4.48,4.48,0,0,0,4.12,4.44c1.73,0,4-.65,4-3.47a4.48,4.48,0,0,1-3.14,1.3c-2.17,0-2.28-3-2.28-4.33,0-8.45,9.86-11.92,9.86-22.11A16.93,16.93,0,0,0,659.51,360.26Z" transform="translate(-220.12 -322.76)" style="fill:#999"/><path d="M641.3,404.92c0,.65.33.76.65.76s.54-.54.54-.65V375.22c0-2.6,3-7.26,7.15-7.26,2.17,0,2.93,2.06,4.12,2.06.54,0,.65-.43.65-.76,0-1.41-1.41-3.47-4.44-3.47a6.12,6.12,0,0,0-3.25.87,8.07,8.07,0,0,0,1.73-4.77c0-3.36-1.73-7.48-4.33-7.48A1.06,1.06,0,0,0,643,355.5c0,2.49,3.79,2.38,3.79,6.39,0,4.88-5.53,7.59-5.53,13.33Z" transform="translate(-220.12 -322.76)" style="fill:#999"/><path d="M768.87,422.58c-.87,0-2.06,0-2.06,1.08,0,.65,1.73.87,1.73,2-.11,1.3-.43,3.47-4.44,3.47s-5.85-4.23-5.85-8.89V405.57C763,411.1,767,416,767.57,416s.54-2.49.54-6.72c0-5.2-.22-13-.22-21.68,0-2.93,0-5.85.11-8.89-2.49-2.93-6-6.83-9.32-10.62V356.36c0-1.3-.22-1.41-.54-1.84-.65-.65-7.59-7.91-8.13-8.13a.82.82,0,0,0-.43-.22c-.22,0-.33.22-.33.54,0,4.33-.11,12.68-.11,13.22s2.93,3.79,7.48,8.67c-.11,10.3-.11,21.46-.11,32.84-6.39-7.15-13.44-15.72-13.44-18.43,0-2.06,1.73-2.93,1.73-4,0-1.52-.76-2.93-2.28-2.93s-3,1.19-3,4.77,3.79,7.15,4.34,7.8A6.44,6.44,0,0,0,741,388c-1.73,0-4.12.87-4.12,3.36,0,.54.43,1.41,1.19,1.41a1.51,1.51,0,0,0,1.41-1.3c0-1.41.22-2.06,1.52-2.06,2.71,0,9.43,7.26,15.5,14.09v16.58c0,5.85,3,10,7.59,10s7-2.49,7-4.44A2.84,2.84,0,0,0,768.87,422.58Zm-10.3-51.81c2.28,2.6,4.88,5.53,7.7,8.89V412.4c-.11-.22-3.68-4-8-8.89C758.36,392.56,758.57,381.72,758.57,370.78Zm-2-5c-2.28-2.49-4.23-4.88-5.64-6.72,0-.65.11-8.35.11-9.32,2.17,2.06,4.88,5.31,5.53,5.85Z" transform="translate(-220.12 -322.76)" style="fill:#999"/><path d="M777.54,329.59c-6.18,0-12.14,4.88-12.9,4.88a27,27,0,0,0,.54-4.12c0-2.06-2.28-4.66-5.31-4.66-2.71,0-4.23,1.52-4.23,2.49,0,.11.11.22.11.33a8.86,8.86,0,0,1,2.28-.33c2.28,0,3.79,1.19,3.79,2.93,0,2.28-1.63,7.48-12.46,7.48-5.42,0-10.95-1.84-16-4.34,3.36-2.17,6.07-4,6.07-4.44,0-.87-7.91-6.83-8.78-6.83a44.79,44.79,0,0,0-8.45,4.44c-3.69-2.6-6.07-4.66-6.29-4.66-.76,0-8.89,5.74-8.89,6.61,0,.43,2.93,2.49,6.39,4.66-5.31,5.09-9.75,11.81-9.75,19.94,0,7.59,6.18,16.47,13.87,25.47,0,3.58-.11,11.27-.22,20.59,0,2.93-2.17,6.83-3.36,6.83s-1.84,0-1.84-1.19c0-1,.76-.87.76-1.73a1.1,1.1,0,0,0-1.19-1,2.54,2.54,0,0,0-2.28,2.38,2.87,2.87,0,0,0,2.82,2.82c5.2,0,6.07-4.66,6.29-9.1,0-1.3.11-8.35.22-18.21,11.81,13.66,26.45,27.2,26.45,36.52,0,15.72-8.78,19.62-17.34,19.62s-12.36-6.83-12.36-8.56,1.84-2.93,3.25-2.93c3.25,0,3.58,3.36,4.12,3.36s1.3-2.06,1.3-3.79a5.4,5.4,0,0,0-5.53-5.09,6.36,6.36,0,0,0-6.61,6.29c0,3.79,1.3,5.42,1.3,5.42-1.19-.43-4.66-3.25-8.56-3.25s-5.74,2.49-5.74,4.12,1.19,3.14,2,3.14,1.52-.33,1.52-1.3c0-.65-1.52-.87-1.52-2.06,0-1.41,1-2.82,3.79-2.82,5,0,13.66,9,23.09,9S747,434.07,747,417.38c0-10.3-16.15-25.36-28.29-39.56,0-7,.22-15.07.22-23.84,0-.87-.11-1.41-.65-1.41s-.76.65-.76,1.19v22.65c-6.94-8.24-12.25-16-12.25-22.44,0-7.59,4.55-14,9.86-18.86l8.24,5c2.17-1.19,5.31-3,8.24-4.77,5.42,2.71,11.71,4.77,17.88,4.77,16.37,0,21.79-9.1,28.07-9.1,5.74,0,8.45,2.71,8.45,4.34,0,1.84-2.38,1.63-2.38,2.82s.43,1.73,1.84,1.73,2.38-2,2.38-4.44S783.72,329.59,777.54,329.59Zm-62.65,97q-.33,0-.33-1.3c0-2,.76-4.12,4-4.12a4.69,4.69,0,0,1,4.55,3.9c0,1.08,0,1.41-.33,1.41s-1.41-2.38-4.12-2.38S715.11,426.59,714.9,426.59Zm-.22-93.75-5.42-3.47,6.61-4.55s1.73,1.52,4.55,3.69A61.33,61.33,0,0,0,714.68,332.84Zm8.67,5.42-6.94-4.34c2-1.63,3.9-3,5.74-4.33a64.29,64.29,0,0,0,7.48,4.66Zm8-5.09a70.34,70.34,0,0,1-7.59-4.55,57.63,57.63,0,0,1,6.83-3.79l6.18,5Z" transform="translate(-220.12 -322.76)" style="fill:#999"/></g><g id="maiden_fg"><path d="M307.8,407.3c-2.17-11.49-4.66-33.82-6-51.7,0-11.6,10.84-7.91,10.84-10.51,0-.43,0-.76-.54-.76-5.31,0-12.9.87-16.69,1.3-1.19,0-22,47.47-22.76,47.47s-14-26-20.16-38.69c-1.19-2.49-4.23-9.75-5.53-9.75h-2.49c-5,0-9.54-.43-14.42-.43a1,1,0,0,0-.11.54c0,.33.54,1.08.87,1.08,8.13.65,12,2,12,11.38l-.11.54c-.11,1-2.06,11.92-5.85,49.53-.65,6.18-10,5.09-10,6.94,0,.54,0,1.19.33,1.19S238.11,415,240,415c3.79,0,9.1.43,11.49.43.54,0,1.41-1.08,1.41-1.41,0-1.73-10.4-.43-10.4-6.29-.11-1.84-.11-3.79-.11-5.64,0-11.71,1.63-22.22,2.82-31.76.54-4.55,1-10.62,1.41-14.52,1,1.08,7.48,13.66,22.33,43.14,1.19,1.73,2.71,5.53,3.36,5.53s4-8.56,6.18-12.79c6-12,11.49-24.71,17.56-36.42,2.49,19.94,5.74,41.19,5.74,52.46,0,5.85-9.86,4.77-9.86,6.5,0,.33.43,1.3,1,1.3,2.38,0,8.13-.54,11.92-.54,1.84,0,11.71.43,12.14.43s.76-.54.76-1.08C317.67,412.5,309,413.37,307.8,407.3Z" transform="translate(-220.12 -322.76)" style="fill:#222"/><path d="M422.8,413.48c-6.18-.76-12.14-2.06-14.85-7.91-9.1-19.94-17.67-40-26.45-60.8-.22-.33-.65-1.73-1.3-2.17a.85.85,0,0,0-.43.43c-1.84,3.69-3.36,8.56-5,12.14-.65,1.3-12.57,31.32-13.44,32.19-.76,2.06-4.66,10.73-5.42,12.57-.11.22-.65,1.73-.76,1.84-4.12,9.32-9,11.71-15.82,11.71-.65,0-.65.54-.65.76s.11,1,.65,1a117.78,117.78,0,0,1,12.36-.54c5.09,0,10.3.22,15.39.54,0,0,.54-.54.54-1s-.22-.76-.54-.76c-3.14,0-8.56-1.41-8.56-5.2,0-3.25,6.29-17.12,6.29-17.12,5.64.76,9.65,1.63,15.17,1.63a85,85,0,0,0,15.5-1.73s6.18,11.81,6.18,18.32c0,2.49-7.59,4.12-9.65,4.12-.33,0-.43.43-.43.76s0,1,.33,1c6.61-.33,12.79-.54,18.1-.54,5,0,9.21.22,12.57.54a1.43,1.43,0,0,0,.65-1.08C423.23,413.59,422.91,413.59,422.8,413.48Zm-42.92-25a48.79,48.79,0,0,1-13.11-1.63l12.9-32.3s9.86,21.13,13.87,32.3A50.72,50.72,0,0,1,379.88,388.44Z" transform="translate(-220.12 -322.76)" style="fill:#222"/><path d="M473.31,344.22c-.43,0-10,.43-11.81.43-3.79,0-9.86-.43-12.25-.43-.54,0-.65,1-.65,1.3,0,1.52,9.21,0,9.43,5.09.32,6.5.43,12.79.43,19.08,0,12.57-.43,24.82-.43,37.61,0,6.18-10,4.77-10,6.61,0,.54,0,1.52.33,1.52s10.84-.43,12.68-.43c3.79,0,9.86.54,12.25.54.54,0,.65-1.41.65-1.73,0-1.73-10.4-.22-10.4-6.07,0-18.64-.11-37.28-.11-57.44,0-4,10.95-2.93,10.95-4.66C474.39,345.09,473.63,344.22,473.31,344.22Z" transform="translate(-220.12 -322.76)" style="fill:#222"/><path d="M554.49,344.66H517.2a.57.57,0,0,0-.65.65c0,.33.33,1.63.87,1.63a3.69,3.69,0,0,1,1.08-.11c8.34,0,8.67,8.13,8.67,13.87v37.61c0,9-1.3,15.39-11.81,15.39a.58.58,0,0,0-.54.54c0,.33.22.87.33.87h38.69c20.27,0,37.17-10.73,37.17-33.6C591,357.12,572.91,344.66,554.49,344.66Zm-3.69,65.9H532.7c0-4.77.33-22.22.43-61.45h22.22c18.32,0,29.26,16.26,29.26,32C584.62,409.69,564.46,410.55,550.8,410.55Z" transform="translate(-220.12 -322.76)" style="fill:#222"/><path d="M684.22,397.87c-.54,0-.65.43-.76.87C681,408.6,676,411.1,666.66,411.1c-14.42,0-21-.43-29.16-.65a3.26,3.26,0,0,1-2.28-1.73V382.37c0-.65.43-.76.65-.76h20.81c7.37,0,6.72,6.29,8,6.29.22,0,.76,0,.76-.54V371.1c0-.11,0-.54-.65-.54-1.3,0-1.08,6.83-7.37,6.83H635.88a.64.64,0,0,1-.65-.65V350.4c.11,0,.65-1.84,1.84-1.84,12,0,29.48,0,38.26,2.71,2.71.87,4.55,6.5,5.2,9,.11.33.76.54,1,.54.65,0,.65-1.41.65-2.71,0-.87-.43-8.45-.43-10.19,0-3.25-.11-3.25-1.73-3.25-10.62.33-22.22.54-34.47.54-9.32,0-19-.11-28.94-.54-.43,0-.76.22-.76.65s.22,1.41.76,1.41c7.26,0,12.79.76,12.79,10.4v42.16c0,10.51-2.93,13.11-13,14.09a.62.62,0,0,0-.65.65c0,.33.22,1.08.76,1.08,11.81-.33,22.76-.43,33.17-.43,11.49,0,22.22.11,32.41.43.65-.22.87-1.19,1-1.73l2.38-14.31A1.38,1.38,0,0,0,684.22,397.87Z" transform="translate(-220.12 -322.76)" style="fill:#222"/><path d="M790.33,344.22c-.43,0-10.08,1.08-11.92,1.08-3.9,0-10.4-1-12.68-1-.54,0-.65.87-.65,1.19,0,2.82,10.08.22,10.51,7.8.22,5,.33,10.4.33,19.73,0,6.61,0,15.07-.11,26.55a1.76,1.76,0,0,1-.54,1.52c-5.53-5.2-17.23-21.24-20.81-24.82l-28.18-31.76c-.33,0-10-.11-11.92-.11-.65,0-.65.33-.65.54,0,0,.22,1.19.76,1.19.11,0,10.3,1,10.3,6,0,9.86.22,20.05.22,30.46,0,8.24-.11,16.58-.54,24.71,0,6.72-10.08,5.31-10.08,7.15,0,.43.33,1.08.65,1.08s11.06-.43,12.9-.43c3.79,0,9.86.54,12.25.54.54,0,.54-.65.54-1,0-2.17-11.06-.33-11.06-7.91,0-10.95-.22-21.89-.22-32.95,0-5.53,0-11.06.22-16.69,12.68,15.82,25.79,28.4,38.15,43.79L778.62,416a2.11,2.11,0,0,0,.87.11c.33,0,.65-.11.65-.33V391.48c0-13.55.54-27,.54-38.48,0-8.24,10.51-5,10.51-7.48C791.2,345,790.65,344.22,790.33,344.22Z" transform="translate(-220.12 -322.76)" style="fill:#222"/></g></svg>